PathFileType	4	(X/Y/Z)	C:/Users/opensim2020/Desktop/walking_exp_matlab/subject06_walking20_straight_02.trc	
DataRate	CameraRate	NumFrames	NumMarkers	Units	OrigDataRate	OrigDataStartFrame	OrigNumFrames	
100.00	100.00	7	43	mm	100.00	1255	105	
Frame#	Time	LFHD			RFHD			LBHD			RBHD			C7			T10			CLAV			STRN			RBAK			LSHO			LUPA			LELB			LFRM			LWRA			LWRB			LFIN			RSHO			RUPA			RELB			RFRM			RWRA			RWRB			RFIN			LASI			RASI			LPSI			RPSI			LTHI			LKNE			LTIB			LANK			LHEE			LTOE			RTHI			RKNE			RTIB			RANK			RHEE			RTOE			*39			*40			*41			*42			
		X1	Y1	Z1	X2	Y2	Z2	X3	Y3	Z3	X4	Y4	Z4	X5	Y5	Z5	X6	Y6	Z6	X7	Y7	Z7	X8	Y8	Z8	X9	Y9	Z9	X10	Y10	Z10	X11	Y11	Z11	X12	Y12	Z12	X13	Y13	Z13	X14	Y14	Z14	X15	Y15	Z15	X16	Y16	Z16	X17	Y17	Z17	X18	Y18	Z18	X19	Y19	Z19	X20	Y20	Z20	X21	Y21	Z21	X22	Y22	Z22	X23	Y23	Z23	X24	Y24	Z24	X25	Y25	Z25	X26	Y26	Z26	X27	Y27	Z27	X28	Y28	Z28	X29	Y29	Z29	X30	Y30	Z30	X31	Y31	Z31	X32	Y32	Z32	X33	Y33	Z33	X34	Y34	Z34	X35	Y35	Z35	X36	Y36	Z36	X37	Y37	Z37	X38	Y38	Z38	X39	Y39	Z39	X40	Y40	Z40	X41	Y41	Z41	X42	Y42	Z42	X43	Y43	Z43	

14	0.130	1497.77014	943.04126	1638.06482	1366.42285	938.98187	1624.65857	1494.86218	1076.23718	1583.38965	1366.49365	1070.72168	1575.41589	1439.55737	1075.54431	1425.48242	1433.29358	1119.68213	1098.47266	1441.27368	965.99780	1345.79907	1446.35046	932.57990	1168.14063	1354.67029	1149.75037	1257.36365	1602.74731	1026.95215	1376.36255	1668.75220	1080.51147	1181.39331	1675.37097	1120.44128	1075.22266	1699.20654	1145.69141	928.14374	1657.77686	1125.06934	797.56433	1697.41968	1182.75146	815.91400	1692.21692	1177.51990	723.38763	1279.44531	1007.87695	1380.41931	1182.46765	1042.49512	1187.26953	1165.36218	1024.88318	1070.17822	1158.93311	957.01105	975.36926	1211.97180	838.36853	897.27472	1168.56873	878.13428	864.97253	1176.03564	804.32086	826.46442	1535.23779	941.28040	937.23608	1317.06836	958.40570	934.64478	1521.24231	1102.17407	962.28827	1352.50452	1107.43640	966.44012	1621.83667	933.71338	636.34460	1594.47766	862.48383	492.07602	1601.88428	806.16321	245.16208	1570.51404	740.06378	82.27248	1525.41882	771.03589	51.66748	1564.00757	594.42102	104.78133	1291.39880	1068.32739	605.78174	1321.11096	1096.70227	482.72623	1344.08606	1250.34082	258.79456	1396.94507	1349.92773	104.38532	1442.02026	1397.54431	95.39782	1392.96301	1216.92993	38.03623	1434.70935	1041.49097	1674.89587									 
15	0.140	1499.51086	928.86151	1637.42957	1368.11646	925.02203	1623.93396	1496.84277	1062.02026	1582.68384	1368.43384	1056.73193	1574.69507	1441.49585	1061.40503	1424.46997	1434.61121	1104.23279	1097.23267	1443.05640	951.47900	1345.14465	1447.61414	917.14783	1167.54773	1356.60547	1135.12756	1256.31653	1604.58093	1012.85162	1375.55994	1670.36584	1066.97266	1180.95679	1676.75232	1107.80347	1075.09167	1700.00696	1134.11829	927.99933	1658.63452	1114.27844	797.53766	1698.10156	1172.22949	816.11206	1692.67493	1167.41223	723.60803	1281.24280	993.65295	1379.74451	1184.51611	1028.40674	1186.71509	1167.01172	1010.89185	1069.59302	1160.34888	943.34650	974.56470	1212.98145	824.81274	896.26660	1169.83838	864.62390	863.92114	1176.84900	790.91351	825.56390	1535.93774	924.75201	936.83746	1318.02673	942.96326	933.69562	1522.99243	1085.64453	961.57770	1354.38684	1091.84790	965.37677	1622.63232	917.12024	635.98920	1594.92334	847.73950	491.08765	1601.68298	790.38434	243.90453	1569.71130	724.16345	81.15056	1524.64758	755.13483	50.44520	1563.07007	578.73407	104.73133	1292.45850	1054.03540	605.01501	1321.98083	1082.59265	482.01157	1345.06299	1242.22168	261.74997	1397.86792	1346.11633	110.29727	1443.11035	1393.71472	103.30591	1393.06995	1216.21826	38.53418	1436.55188	1027.39514	1674.16956									 
16	0.150	1501.22302	914.62024	1637.02600	1369.86365	911.01306	1623.51172	1498.84094	1047.82422	1582.28760	1370.39636	1042.63660	1574.20239	1443.39038	1047.15356	1423.65283	1436.13049	1088.62915	1096.25867	1444.90247	936.75916	1344.81152	1449.07727	901.65961	1167.44299	1358.58252	1120.34473	1255.44189	1606.42749	998.70837	1375.13220	1672.13428	1053.39307	1180.92944	1678.39612	1094.89722	1075.46851	1701.25049	1122.09595	928.45178	1659.46399	1102.60327	797.87585	1698.77698	1160.87097	816.57220	1693.35876	1156.31946	724.03943	1283.17175	979.45538	1379.41345	1186.34521	1014.34863	1186.54675	1168.88037	997.03326	1069.31897	1161.85913	929.97723	973.82428	1213.96631	811.81244	894.87653	1171.05286	851.88232	862.71704	1177.59583	778.34296	824.19415	1536.70496	907.78522	936.85565	1319.34937	928.69525	933.35291	1524.71118	1068.30420	961.13104	1356.38867	1075.87280	964.61560	1622.87219	899.98120	635.88196	1594.90942	832.36151	490.54236	1601.50281	776.09442	242.32373	1569.02930	711.24316	79.19785	1524.01575	742.43018	48.22200	1561.90918	566.24072	102.96188	1293.57751	1038.70898	604.34131	1322.76318	1067.12061	481.10098	1346.04309	1232.88171	265.13306	1398.64771	1341.50488	117.09957	1444.20618	1388.77698	112.23657	1393.00757	1215.65833	38.81188	1438.44153	1013.27344	1673.76929									 
17	0.160	1502.94556	900.48987	1636.89600	1371.61694	897.04211	1623.35242	1500.83643	1033.64368	1582.14539	1372.53748	1028.89209	1574.04785	1445.34729	1032.77979	1423.10352	1437.74304	1072.89893	1095.55737	1446.80786	922.02087	1344.82886	1450.54736	885.99982	1167.65308	1360.82068	1105.63257	1254.91724	1608.25244	984.34027	1375.00220	1673.92688	1039.49805	1181.25159	1679.75452	1081.36621	1075.88440	1702.43848	1109.32947	929.00720	1660.95410	1090.24890	798.35730	1699.60791	1148.75476	817.31775	1694.35571	1144.29004	724.78235	1285.17249	965.43616	1379.37036	1188.17542	1000.14764	1186.66528	1170.92493	983.30487	1069.31555	1163.42126	916.98083	973.19562	1214.85913	799.32025	893.23517	1172.23218	839.88367	861.45557	1178.35645	766.52557	822.30530	1537.47827	890.55432	937.10114	1320.22437	911.55957	933.26544	1526.51440	1051.02954	961.00458	1358.44897	1059.55078	964.03717	1622.52954	882.59436	635.97882	1594.53503	816.40710	490.29593	1601.24878	763.42322	240.35519	1568.22241	701.27551	76.12694	1523.67798	732.87592	45.45467	1560.51941	556.76410	99.61810	1294.75781	1022.20990	603.47821	1323.42371	1049.96289	480.09576	1347.23181	1222.35022	269.18597	1399.48083	1335.63855	124.82584	1445.41479	1382.40271	122.44749	1393.18848	1214.70276	39.14912	1440.39697	999.24957	1673.59558									 
18	0.170	1504.67139	886.28436	1636.90637	1373.39697	883.17889	1623.43970	1502.92383	1019.47882	1582.12610	1374.63989	1014.98273	1574.06201	1447.44531	1018.40784	1422.72363	1439.59839	1056.97913	1095.01123	1448.69580	907.21472	1345.03772	1452.03955	870.14618	1168.09216	1363.03015	1090.70679	1254.45764	1610.08240	969.75989	1375.13538	1675.70935	1025.30115	1181.83167	1681.26526	1067.40564	1076.53552	1703.39368	1095.72449	929.50446	1662.41687	1076.83508	799.06378	1699.48413	1135.08508	817.30151	1695.47485	1131.28223	725.65210	1287.28723	951.47272	1379.47913	1190.01672	986.26337	1187.05334	1173.12048	969.71881	1069.49512	1165.00281	904.45001	972.59070	1215.74402	787.43079	891.17151	1173.25256	828.61511	859.93439	1178.79016	755.96387	819.96332	1538.33521	872.93848	937.53961	1321.44238	895.29083	933.40747	1528.28638	1033.45337	961.00031	1360.63452	1042.87219	963.69403	1621.70410	864.87170	636.14673	1593.96289	800.31549	489.86426	1600.63196	751.76154	237.74915	1567.49158	693.67389	72.63026	1523.59937	726.54950	42.91527	1559.18347	549.48901	94.27528	1295.43860	1004.69702	602.57916	1323.88940	1030.93311	478.76004	1348.03601	1209.92126	273.41254	1400.47559	1328.11133	133.46613	1446.94275	1373.80579	133.50613	1393.38647	1213.42932	39.50739	1442.35229	985.24030	1673.59827									 
19	0.180	1506.40125	872.15765	1637.03186	1375.16272	869.41406	1623.59253	1505.10559	1005.35883	1582.18262	1376.75623	1001.25500	1574.15259	1449.64478	1004.00299	1422.38745	1441.79126	1040.89929	1094.59851	1450.48145	892.33807	1345.32776	1453.51831	854.13947	1168.69836	1365.32324	1075.84973	1254.02161	1612.04028	954.88458	1375.50415	1677.57764	1010.73773	1182.70923	1682.53394	1052.77173	1077.13855	1704.53601	1081.47205	930.25659	1664.03210	1062.50940	799.87793	1700.86389	1121.66333	818.67761	1696.71179	1117.28357	726.51184	1289.45520	937.61859	1379.73706	1192.07434	972.49731	1187.48621	1175.33972	956.41663	1069.74377	1166.59631	892.25104	971.93933	1216.56201	776.03094	888.75610	1174.33154	817.84070	858.02826	1179.52026	745.55273	816.99872	1539.20105	855.27374	937.95142	1322.98877	879.86218	933.74506	1530.40808	1015.64294	961.10895	1362.81140	1026.12659	963.42291	1620.77771	846.79706	636.35291	1594.14539	784.80969	489.01202	1599.45422	741.71729	235.56371	1565.83008	687.50879	69.85815	1520.85095	722.17023	44.24567	1559.67761	542.50159	82.16143	1295.67725	986.09290	601.33221	1323.88025	1010.19031	476.87128	1348.91882	1195.08240	277.42853	1401.81873	1318.26050	142.55090	1448.96741	1362.93628	145.23610	1393.88660	1211.63745	39.81110	1444.39966	971.33282	1673.69678									 
20	0.190	1508.16370	857.99554	1637.73218	1376.73376	855.80292	1624.25964	1507.29822	991.09113	1582.39417	1378.89294	987.40637	1574.37659	1452.01965	989.73254	1422.54102	1443.98096	1024.68872	1094.38818	1452.25586	877.39331	1346.10596	1454.98730	838.17841	1169.69312	1367.93420	1061.16345	1253.70691	1614.02856	939.65308	1376.08374	1679.55884	995.76868	1183.64355	1684.29993	1038.15894	1078.24585	1706.29077	1066.99426	931.36652	1665.75647	1047.32849	800.69482	1701.62549	1106.83777	819.37000	1698.15381	1102.32617	727.39886	1291.59143	923.93909	1380.18445	1194.30005	959.10010	1187.88403	1177.56177	943.22742	1069.94958	1168.22021	880.36914	971.11194	1217.22498	765.23358	885.91150	1175.24622	807.75665	855.97687	1180.05359	736.11658	813.77386	1540.30542	838.05505	938.70648	1323.92578	861.59436	934.38245	1532.81421	998.23535	961.87433	1364.94275	1009.39178	963.05585	1620.67847	828.85968	636.83795	1595.82300	769.70044	488.62283	1598.17371	730.83087	235.17880	1566.83862	682.63623	69.92589	1521.70483	718.80066	47.05180	1559.79675	535.81061	70.76955	1295.79956	966.49719	599.90735	1323.32324	988.58667	474.82489	1350.09521	1178.40369	281.56708	1403.34033	1306.63794	151.82903	1451.21179	1350.03955	158.01299	1394.62683	1210.31848	40.02642	1446.55176	957.59204	1674.03345									 
